<svg width="14" height="14" viewBox="0 0 14 14" fill="none" xmlns="http://www.w3.org/2000/svg">
<path d="M7.37598 9.14284V4.57141H9.01157C9.5172 4.57141 9.93269 4.66719 10.2581 4.85876C10.5878 5.05032 10.8318 5.31808 10.9901 5.66202C11.1528 6.00162 11.2341 6.40216 11.2341 6.86366C11.2341 7.31645 11.1528 7.71481 10.9901 8.05876C10.8318 8.39835 10.5878 8.66393 10.2581 8.85549C9.93269 9.04706 9.5172 9.14284 9.01157 9.14284H7.37598ZM8.33887 8.31998H9.03136C9.29077 8.31998 9.5084 8.26991 9.68428 8.16978C9.86015 8.06964 9.99205 7.91291 10.08 7.69957C10.1723 7.48189 10.2185 7.20107 10.2185 6.85713C10.2185 6.51318 10.1723 6.23454 10.08 6.02121C9.99205 5.80787 9.86015 5.65114 9.68428 5.551C9.5084 5.44651 9.29077 5.39427 9.03136 5.39427H8.33887V8.31998Z" fill="url(#paint0_linear_8084_511)"/>
<path d="M3.51758 9.14284V4.57141H5.58076C5.88795 4.57141 6.15845 4.63436 6.39228 4.76026C6.62611 4.88616 6.8095 5.06415 6.94247 5.29424C7.08001 5.52433 7.14878 5.79567 7.14878 6.10824C7.14878 6.38609 7.0846 6.64223 6.95622 6.87666C6.83243 7.10675 6.65133 7.29126 6.41291 7.43018C6.17909 7.56476 5.89712 7.63205 5.56701 7.63205H4.53542V9.14284H3.51758ZM4.52166 6.81154H5.40883C5.6289 6.81154 5.79625 6.73991 5.91087 6.59665C6.03008 6.44904 6.08968 6.2819 6.08968 6.09522C6.08968 5.89986 6.03008 5.73489 5.91087 5.60031C5.79167 5.46139 5.62432 5.39192 5.40883 5.39192H4.52166V6.81154Z" fill="url(#paint1_linear_8084_511)"/>
<path d="M6.8135 0C10.2591 0 13.2436 2.559 13.7355 5.88497H12.2603C11.7762 3.01316 9.37746 1.48571 6.8135 1.48571C4.49803 1.48571 2.02035 3.00575 1.53625 5.87756H0.0233048C0.515214 2.55159 3.36789 0 6.8135 0Z" fill="#E4201D"/>
<path d="M13.7348 6.5127C13.7381 6.60002 13.7398 6.68775 13.7398 6.77587C13.7398 10.5872 10.6612 13.7136 6.86958 13.7136C3.07801 13.7136 0 10.588 0 6.77673C0 6.68861 0.00168596 6.60087 0.00494303 6.51355H1.53625C1.53255 6.60081 1.53056 6.68854 1.53056 6.77672C1.53625 9.60001 3.91922 12.1714 6.86958 12.1714C9.81993 12.1714 12.276 9.65715 12.276 6.77587C12.276 6.68769 12.2741 6.59996 12.2704 6.5127H13.7348Z" fill="black"/>
<defs>
<linearGradient id="paint0_linear_8084_511" x1="9.30505" y1="4.57141" x2="9.30505" y2="9.14284" gradientUnits="userSpaceOnUse">
<stop stop-color="#E3211D"/>
<stop offset="1"/>
</linearGradient>
<linearGradient id="paint1_linear_8084_511" x1="5.33318" y1="4.57141" x2="5.33318" y2="9.14284" gradientUnits="userSpaceOnUse">
<stop stop-color="#E3211D"/>
<stop offset="1"/>
</linearGradient>
</defs>
</svg>
