<svg width="141" height="140" viewBox="0 0 141 140" fill="none" xmlns="http://www.w3.org/2000/svg">
<rect width="141" height="140" fill="url(#paint0_radial_8083_695)"/>
<path d="M75 90V50H89.4137C93.8695 50 97.5311 50.8381 100.398 52.5143C103.304 54.1905 105.455 56.5333 106.85 59.5429C108.283 62.5143 109 66.019 109 70.0571C109 74.019 108.283 77.5048 106.85 80.5143C105.455 83.4857 103.304 85.8095 100.398 87.4857C97.5311 89.1619 93.8695 90 89.4137 90H75ZM83.4855 82.8H89.588C91.8741 82.8 93.792 82.3619 95.3419 81.4857C96.8917 80.6095 98.0541 79.2381 98.8291 77.3714C99.6427 75.4667 100.05 73.0095 100.05 70C100.05 66.9905 99.6427 64.5524 98.8291 62.6857C98.0541 60.819 96.8917 59.4476 95.3419 58.5714C93.792 57.6571 91.8741 57.2 89.588 57.2H83.4855V82.8Z" fill="url(#paint1_linear_8083_695)"/>
<path d="M41 90V50H59.1818C61.8889 50 64.2727 50.5508 66.3333 51.6524C68.3939 52.754 70.0101 54.3115 71.1818 56.3248C72.3939 58.3381 73 60.7122 73 63.4473C73 65.8784 72.4343 68.1197 71.303 70.1709C70.2121 72.1842 68.6162 73.7987 66.5152 75.0142C64.4545 76.1918 61.9697 76.7806 59.0606 76.7806H49.9697V90H41ZM49.8485 69.6011H57.6667C59.6061 69.6011 61.0808 68.9744 62.0909 67.7208C63.1414 66.4292 63.6667 64.9668 63.6667 63.3333C63.6667 61.6239 63.1414 60.1804 62.0909 59.0028C61.0404 57.7873 59.5657 57.1795 57.6667 57.1795H49.8485V69.6011Z" fill="url(#paint2_linear_8083_695)"/>
<path d="M70.0439 10C100.408 10 126.709 32.3912 131.044 61.4935H118.044C113.778 36.3652 92.6389 23 70.0439 23C49.6389 23 27.8043 36.3003 23.5382 61.4286H10.2054C14.5403 32.3264 39.6795 10 70.0439 10Z" fill="#D41F1B"/>
<path d="M131.038 66.9861C131.067 67.7501 131.082 68.5178 131.082 69.2889C131.082 102.638 103.951 129.994 70.5382 129.994C37.1249 129.994 10 102.645 10 69.2964C10 68.5253 10.0149 67.7576 10.0436 66.9936H23.5382C23.5056 67.7571 23.4881 68.5248 23.4881 69.2963C23.5382 94.0001 44.5382 116.5 70.5382 116.5C96.5382 116.5 118.183 94.5001 118.183 69.2889C118.183 68.5173 118.165 67.7496 118.133 66.9861H131.038Z" fill="black"/>
<defs>
<radialGradient id="paint0_radial_8083_695" cx="0" cy="0" r="1" gradientUnits="userSpaceOnUse" gradientTransform="translate(70.5 70) rotate(90.4092) scale(70.0018 70.5018)">
<stop stop-color="white" stop-opacity="0.5"/>
<stop offset="0.663462" stop-color="#C8C8C8" stop-opacity="0.302885"/>
<stop offset="1" stop-color="#737373" stop-opacity="0"/>
</radialGradient>
<linearGradient id="paint1_linear_8083_695" x1="92" y1="50" x2="92" y2="90" gradientUnits="userSpaceOnUse">
<stop stop-color="#E3211D"/>
<stop offset="1"/>
</linearGradient>
<linearGradient id="paint2_linear_8083_695" x1="57" y1="50" x2="57" y2="90" gradientUnits="userSpaceOnUse">
<stop stop-color="#E3211D"/>
<stop offset="1"/>
</linearGradient>
</defs>
</svg>
