<svg xmlns="http://www.w3.org/2000/svg" viewBox="0 0 60 60" width="60" height="60" shape-rendering="geometricPrecision">
  <!-- body -->
  <circle cx="27" cy="38" r="18" fill="#2b2f36"/>
  <circle cx="27" cy="38" r="18" fill="none" stroke="#14161a" stroke-width="2"/>
  <!-- glossy highlight -->
  <ellipse cx="20" cy="30" rx="6" ry="4" fill="#5a626e" opacity="0.85"/>
  <!-- fuse cap -->
  <rect x="31" y="16" width="9" height="8" rx="2" transform="rotate(28 35 20)" fill="#6b7280"/>
  <rect x="31" y="16" width="9" height="8" rx="2" transform="rotate(28 35 20)" fill="none" stroke="#3a3f47" stroke-width="1.5"/>
  <!-- wick -->
  <path d="M40 17 C 47 11, 44 6, 50 4" fill="none" stroke="#a9744f" stroke-width="3" stroke-linecap="round"/>
  <!-- spark -->
  <g>
    <circle cx="50" cy="4" r="3.5" fill="#ffd23f"/>
    <circle cx="50" cy="4" r="2" fill="#ff7a1a"/>
    <path d="M50 -2 L51.4 1.2 L54.5 1 L52 3.2 L53 6.3 L50 4.6 L47 6.3 L48 3.2 L45.5 1 L48.6 1.2 Z" fill="#ffe98a" opacity="0.9"/>
  </g>
</svg>
